<?xml version="1.0" standalone="no"?>
<!DOCTYPE svg PUBLIC "-//W3C//DTD SVG 20010904//EN"
 "http://www.w3.org/TR/2001/REC-SVG-20010904/DTD/svg10.dtd">
<svg version="1.0" xmlns="http://www.w3.org/2000/svg"
 width="700.000000pt" height="700.000000pt" viewBox="0 0 700.000000 700.000000"
 preserveAspectRatio="xMidYMid meet">
<metadata>
Created by potrace 1.14, written by Peter Selinger 2001-2017
</metadata>
<g transform="translate(0.000000,700.000000) scale(0.100000,-0.100000)"
fill="#000000" stroke="none">
<path d="M600 6501 c-114 -37 -189 -93 -233 -176 -21 -39 -22 -50 -22 -430 0
-368 1 -392 20 -430 51 -103 172 -178 321 -197 l84 -12 0 -2238 c0 -2190 0
-2240 19 -2294 41 -116 136 -209 250 -244 62 -20 98 -20 2456 -20 2300 0 2396
1 2453 18 107 34 196 113 244 218 l23 49 3 2255 2 2256 90 11 c151 19 259 83
315 184 l30 54 0 390 c0 381 0 391 -22 430 -27 51 -96 117 -148 143 -112 56
103 52 -2989 51 -2695 0 -2844 -1 -2896 -18z m1470 -1721 l0 -480 -505 0 -505
0 0 480 0 480 505 0 505 0 0 -480z m1300 0 l0 -480 -540 0 -540 0 0 480 0 480
540 0 540 0 0 -480z m1290 302 l0 -179 110 55 110 55 0 123 0 124 525 0 525 0
0 -480 0 -480 -217 -1 -218 -1 -104 -109 -104 -109 322 0 321 0 0 -485 0 -485
-525 0 -525 0 -2 282 -3 282 -107 -122 -108 -122 0 -160 0 -160 -124 0 -124 0
-30 -37 c-16 -21 -52 -71 -81 -110 l-51 -73 205 0 205 0 0 -490 0 -490 -493 0
-494 0 -78 -167 c-43 -93 -111 -244 -152 -338 l-73 -170 0 -242 0 -243 -540 0
-540 0 0 453 0 452 -107 160 c-101 149 -108 158 -111 127 l-3 -32 -505 0 -504
0 0 490 0 490 159 0 160 0 6 48 c4 26 15 75 25 110 l18 62 -184 0 -184 0 0
485 0 485 505 0 505 0 0 -349 0 -349 73 -17 c39 -10 89 -24 110 -31 l37 -13 0
379 0 380 540 0 540 0 0 -167 1 -168 109 115 109 115 1 53 0 52 53 0 52 0 110
110 110 110 -163 0 -162 0 0 480 0 480 535 0 535 0 0 -178z m1270 -2682 l0
-490 -525 0 -525 0 0 490 0 490 525 0 525 0 0 -490z m-3860 -1180 l0 -470
-465 0 c-505 0 -508 0 -533 55 -9 19 -12 144 -12 455 l0 430 505 0 505 0 0
-470z m2590 0 l0 -470 -535 0 -535 0 0 470 0 470 535 0 535 0 0 -470z m1270
34 c0 -279 -4 -442 -10 -455 -26 -48 -36 -49 -555 -49 l-485 0 0 470 0 470
525 0 525 0 0 -436z"/>
<path d="M5028 4749 c-283 -67 -878 -581 -1653 -1429 -160 -175 -417 -467
-474 -537 l-33 -42 -197 99 c-461 230 -733 303 -877 236 -71 -33 -103 -78
-116 -165 l-10 -70 93 -87 c392 -367 659 -721 1034 -1373 97 -169 124 -196
185 -187 45 7 82 47 110 121 96 249 342 771 490 1039 235 428 517 848 807
1201 159 194 364 414 626 670 211 206 260 260 281 305 31 66 32 89 6 139 -38
75 -153 108 -272 80z"/>
</g>
</svg>
